<svg width="17" height="16" viewBox="0 0 17 16" fill="none" xmlns="http://www.w3.org/2000/svg">
    <path fill-rule="evenodd" clip-rule="evenodd" d="M8.5 16C12.9183 16 16.5 12.4183 16.5 8C16.5 3.58172 12.9183 0 8.5 0C4.08172 0 0.5 3.58172 0.5 8C0.5 12.4183 4.08172 16 8.5 16Z" fill="#0165FC"/>
    <path fill-rule="evenodd" clip-rule="evenodd" d="M13.4497 6.29289C13.8402 5.90236 13.8402 5.2692 13.4497 4.87867C13.0592 4.48815 12.426 4.48815 12.0355 4.87867L7.08576 9.82842L4.96444 7.7071C4.57391 7.31658 3.94075 7.31658 3.55022 7.7071C3.1597 8.09763 3.1597 8.73079 3.55022 9.12131L6.37865 11.9497C6.76917 12.3403 7.40234 12.3403 7.79286 11.9497L13.4497 6.29289Z" fill="white"/>
</svg>
