<svg width="49" height="49" viewBox="0 0 49 49" fill="none" xmlns="http://www.w3.org/2000/svg">
    <circle cx="24.5913" cy="24.5" r="23.5" stroke="#FF4F4F"/>
    <path fill-rule="evenodd" clip-rule="evenodd" d="M27.5677 15.2087L28.325 15.9661H30.9917C31.5783 15.9661 32.0583 16.4461 32.0583 17.0327C32.0583 17.6194 31.5783 18.0994 30.9917 18.0994H18.1917C17.605 18.0994 17.125 17.6194 17.125 17.0327C17.125 16.4461 17.605 15.9661 18.1917 15.9661H20.8583L21.6157 15.2087C21.8077 15.0167 22.085 14.8994 22.3623 14.8994H26.821C27.0983 14.8994 27.3757 15.0167 27.5677 15.2087ZM18.1917 31.9661C18.1917 33.1394 19.1517 34.0994 20.325 34.0994H28.8583C30.0317 34.0994 30.9917 33.1394 30.9917 31.9661V21.2994C30.9917 20.1261 30.0317 19.1661 28.8583 19.1661H20.325C19.1517 19.1661 18.1917 20.1261 18.1917 21.2994V31.9661ZM21.3917 21.2994H27.7917C28.3783 21.2994 28.8583 21.7794 28.8583 22.3661V30.8994C28.8583 31.4861 28.3783 31.9661 27.7917 31.9661H21.3917C20.805 31.9661 20.325 31.4861 20.325 30.8994V22.3661C20.325 21.7794 20.805 21.2994 21.3917 21.2994Z" fill="#FF4F4F"/>
</svg>
