<svg xmlns="http://www.w3.org/2000/svg" viewBox="0 0 41 60">
    <defs>
        <path id="curve" d="M1,30 A20,20 0 0 1 40,30" fill="transparent"/>
    </defs>

    <!-- Banner -->
    <path d="M0,25 A20,20 0 0 1 41,25 L41,35 A20,20 0 0 0 0,35 Z" fill="#0165FC"/>

    <!-- Circle and icon -->
    <circle cx="20.5" cy="30" r="19.5" stroke="#0165FC" fill="white"/>
    <path fill-rule="evenodd" clip-rule="evenodd" d="M27.7583 23.8684C28.0833 23.5434 28.0833 23.0185 27.7583 22.6935L25.8083 20.7437C25.6526 20.5877 25.4413 20.5 25.2208 20.5C25.0004 20.5 24.789 20.5877 24.6333 20.7437L23 22.3769L26.125 25.5016L27.7583 23.8684ZM25.2917 26.3348L22.1667 23.2101L13.9583 31.4176C13.875 31.5009 13.8333 31.6009 13.8333 31.7176V34.2506C13.8333 34.484 14.0167 34.6673 14.25 34.6673H16.7833C16.8917 34.6673 17 34.6256 17.075 34.5423L25.2917 26.3348ZM28.8333 37.167H12.1667C11.25 37.167 10.5 37.9169 10.5 38.8335C10.5 39.7501 11.25 40.5 12.1667 40.5H28.8333C29.75 40.5 30.5 39.7501 30.5 38.8335C30.5 37.9169 29.75 37.167 28.8333 37.167Z" fill="#0165FC"/>

    <!-- Coming Soon text -->
    <text fill="white" font-family="Arial, sans-serif" font-size="8">
        <textPath href="#curve" startOffset="50%" text-anchor="middle">
            COMING SOON
        </textPath>
    </text>
</svg>