<svg width="40" height="40" viewBox="0 0 40 40" fill="none" xmlns="http://www.w3.org/2000/svg">
    <circle cx="20" cy="20" r="19.5" stroke="#0165FC"/>
    <rect width="21" height="21" transform="translate(10 9.5)" fill="#FF000000"/>
    <path d="M22.1143 8L23.2255 11.1517L26.2286 12.3179L23.2255 13.4841L22.1143 16.6358L21.0031 13.4841L18 12.3179L21.0031 11.1517L22.1143 8Z" fill="#0165FC"/>
    <path d="M26.1143 15L27.2255 18.1517L30.2286 19.3179L27.2255 20.4841L26.1143 23.6358L25.0031 20.4841L22 19.3179L25.0031 18.1517L26.1143 15Z" fill="#0165FC"/>
    <path fill-rule="evenodd" clip-rule="evenodd" d="M18.687 22.875C18.687 24.3275 17.5232 25.5 16.0707 25.5C14.6182 25.5 13.4457 24.3275 13.4457 22.875V17.625C13.4457 16.1725 14.6182 15 16.0707 15C17.5232 15 18.6957 16.1725 18.6957 17.625L18.687 22.875ZM20.6645 23.4963C20.717 23.1375 21.0232 22.875 21.3907 22.875C21.8457 22.875 22.1957 23.2775 22.1345 23.7238C21.732 26.3225 19.5357 28.3787 16.9457 28.755V30.75C16.9457 31.2313 16.552 31.625 16.0707 31.625C15.5895 31.625 15.1957 31.2313 15.1957 30.75V28.755C12.597 28.3612 10.4095 26.3225 10.007 23.7238C9.94572 23.2775 10.2957 22.875 10.7507 22.875C11.1095 22.875 11.4245 23.1375 11.477 23.4963C11.8007 25.7887 13.857 27.3375 16.0707 27.3375C18.2845 27.3375 20.3407 25.78 20.6645 23.4963Z" fill="#0165FC"/>
</svg>
