<svg width="21" height="24" viewBox="0 0 21 24" fill="none" xmlns="http://www.w3.org/2000/svg">
    <path d="M12.3065 0L13.4354 3.2017L16.4861 4.38643L13.4354 5.57116L12.3065 8.77286L11.1777 5.57116L8.12695 4.38643L11.1777 3.2017L12.3065 0Z" fill="#0165FC"/>
    <path d="M16.37 7.11133L17.4989 10.313L20.5496 11.4978L17.4989 12.6825L16.37 15.8842L15.2412 12.6825L12.1904 11.4978L15.2412 10.313L16.37 7.11133Z" fill="#0165FC"/>
    <path fill-rule="evenodd" clip-rule="evenodd" d="M8.82494 15.1113C8.82494 16.5869 7.64272 17.778 6.16716 17.778C4.69161 17.778 3.5005 16.5869 3.5005 15.1113V9.77799C3.5005 8.30244 4.69161 7.11133 6.16716 7.11133C7.64272 7.11133 8.83383 8.30244 8.83383 9.77799L8.82494 15.1113ZM10.8338 15.7424C10.8871 15.378 11.1982 15.1113 11.5715 15.1113C12.0338 15.1113 12.3893 15.5202 12.3271 15.9736C11.9182 18.6136 9.68709 20.7024 7.05597 21.0847V23.1113C7.05597 23.6002 6.65597 24.0002 6.16708 24.0002C5.6782 24.0002 5.2782 23.6002 5.2782 23.1113V21.0847C2.6382 20.6847 0.415973 18.6136 0.00708449 15.9736C-0.0551377 15.5202 0.300418 15.1113 0.76264 15.1113C1.12708 15.1113 1.44708 15.378 1.50042 15.7424C1.82931 18.0713 3.9182 19.6447 6.16708 19.6447C8.41597 19.6447 10.5049 18.0624 10.8338 15.7424Z" fill="#0165FC"/>
</svg>
