<svg width="23" height="22" viewBox="0 0 23 22" fill="none" xmlns="http://www.w3.org/2000/svg">
<g id="Apple Logo">
<rect width="22" height="22" transform="translate(0.5)" fill="black"/>
<path id="path4" d="M20.0073 16.8887C19.6885 17.6253 19.3111 18.3033 18.8738 18.9267C18.2778 19.7765 17.7897 20.3647 17.4136 20.6914C16.8306 21.2275 16.2059 21.5021 15.537 21.5178C15.0568 21.5178 14.4777 21.3811 13.8035 21.1039C13.1272 20.828 12.5057 20.6914 11.9373 20.6914C11.3413 20.6914 10.702 20.828 10.0183 21.1039C9.33349 21.3811 8.78183 21.5256 8.36004 21.5399C7.71858 21.5672 7.0792 21.2848 6.441 20.6914C6.03366 20.3361 5.52416 19.727 4.9138 18.8642C4.25894 17.9428 3.72055 16.8744 3.29877 15.6563C2.84705 14.3405 2.62061 13.0665 2.62061 11.833C2.62061 10.4201 2.92591 9.20144 3.53744 8.18023C4.01805 7.35996 4.65743 6.7129 5.45766 6.23789C6.25789 5.76288 7.12254 5.52082 8.05369 5.50534C8.56319 5.50534 9.23133 5.66294 10.0616 5.97267C10.8896 6.28344 11.4212 6.44104 11.6543 6.44104C11.8285 6.44104 12.4191 6.25676 13.4203 5.88938C14.367 5.54867 15.1661 5.4076 15.8207 5.46317C17.5945 5.60632 18.9272 6.30557 19.8134 7.56532C18.227 8.52654 17.4423 9.87283 17.4579 11.5999C17.4722 12.9452 17.9602 14.0646 18.9193 14.9535C19.354 15.366 19.8394 15.6849 20.3795 15.9113C20.2624 16.251 20.1388 16.5763 20.0073 16.8887ZM15.9391 0.88016C15.9391 1.93457 15.5539 2.91906 14.7861 3.8303C13.8595 4.91359 12.7387 5.53956 11.5234 5.44079C11.5079 5.31429 11.4989 5.18116 11.4989 5.04126C11.4989 4.02903 11.9395 2.94574 12.7221 2.06001C13.1128 1.61155 13.6096 1.23866 14.2122 0.941195C14.8134 0.648172 15.3821 0.486124 15.917 0.458374C15.9326 0.599332 15.9391 0.740298 15.9391 0.880147V0.88016Z" fill="white"/>
</g>
</svg>
