<svg width="264" height="240" viewBox="0 0 264 240" fill="none" xmlns="http://www.w3.org/2000/svg">
    <circle cx="132" cy="120" r="120" fill="url(#paint0_linear_1356_5243)"/>
    <g clip-path="url(#clip0_1356_5243)">
        <path d="M159.675 195.442C159.675 201.963 147.508 210.293 132.503 210.293C117.498 210.293 105.331 201.963 105.331 195.442C105.331 188.921 117.362 188.83 132.368 188.83C147.373 188.83 159.675 188.921 159.675 195.442Z" fill="#BFE9FF"/>
        <path d="M132.503 211C117.06 211 104.624 202.488 104.624 195.442C104.624 188.396 117.482 188.122 132.368 188.122C147.254 188.122 160.382 188.122 160.382 195.442C160.382 202.762 147.946 211 132.503 211ZM132.368 189.537C118.826 189.537 106.039 189.537 106.039 195.442C106.039 201.347 117.152 209.585 132.503 209.585C147.854 209.585 158.967 201.137 158.967 195.442C158.967 189.747 146.045 189.537 132.368 189.537Z" fill="#45BEFF"/>
        <path d="M159.039 195.45C159.039 200.97 147.636 209.498 132.495 209.498C117.355 209.498 105.976 200.966 105.976 195.45C105.976 194.385 106.409 193.503 107.192 192.784C110.667 189.612 121.267 189.612 132.364 189.612C143.461 189.612 154.26 189.612 157.798 192.784C158.601 193.503 159.035 194.381 159.035 195.45H159.039Z" fill="#91D9FF"/>
        <path d="M157.798 192.784C152.542 196.674 143.377 200.088 132.495 200.088C121.613 200.088 112.448 196.674 107.192 192.784C110.667 189.612 121.267 189.612 132.364 189.612C143.461 189.612 154.259 189.612 157.798 192.784Z" fill="#D1EFFF"/>
        <path d="M149.266 202.595C149.266 205.067 142.006 208.227 133.048 208.227C124.09 208.227 116.83 205.067 116.83 202.595C116.83 200.124 124.011 200.088 132.969 200.088C141.926 200.088 149.266 200.124 149.266 202.595Z" fill="white"/>
        <path d="M110.473 168.623L111.568 168.747C113.985 169.022 115.729 171.208 115.454 173.628L114.601 181.123C114.326 183.539 112.139 185.282 109.717 185.007L108.619 184.882C106.201 184.607 104.457 182.421 104.733 180.001L105.586 172.506C105.861 170.09 108.048 168.347 110.47 168.622L110.473 168.623Z" fill="#D1EFFF"/>
        <path d="M110.222 185.706C110.027 185.706 109.832 185.694 109.637 185.674L108.54 185.551C107.192 185.396 105.983 184.728 105.136 183.667C104.289 182.606 103.912 181.279 104.063 179.928L104.918 172.437C105.073 171.09 105.741 169.882 106.802 169.035C107.864 168.189 109.192 167.811 110.544 167.962L111.641 168.085C114.424 168.403 116.432 170.923 116.118 173.709L115.263 181.199C115.108 182.547 114.44 183.755 113.379 184.601C112.468 185.324 111.367 185.706 110.226 185.706H110.222ZM109.959 169.27C109.116 169.27 108.305 169.552 107.637 170.084C106.854 170.704 106.361 171.594 106.25 172.588L105.395 180.079C105.16 182.125 106.639 183.981 108.687 184.216L109.784 184.339C110.774 184.454 111.752 184.172 112.536 183.552C113.319 182.932 113.812 182.042 113.923 181.048L114.778 173.558C115.013 171.511 113.534 169.655 111.486 169.421L110.389 169.297C110.245 169.282 110.102 169.274 109.959 169.274V169.27Z" fill="#45BEFF"/>
        <path d="M153.416 184.877L152.318 185.002C149.9 185.277 147.71 183.538 147.434 181.118L146.581 173.623C146.306 171.207 148.046 169.017 150.467 168.742L151.566 168.617C153.983 168.342 156.174 170.081 156.449 172.501L157.302 179.996C157.577 182.412 155.838 184.602 153.416 184.877Z" fill="#D1EFFF"/>
        <path d="M151.807 185.706C150.661 185.706 149.56 185.324 148.654 184.601C147.592 183.755 146.92 182.547 146.769 181.199L145.914 173.705C145.759 172.357 146.141 171.03 146.988 169.969C147.835 168.908 149.043 168.236 150.391 168.085L151.488 167.962C152.836 167.811 154.164 168.189 155.226 169.035C156.287 169.882 156.959 171.09 157.111 172.437L157.965 179.928C158.12 181.275 157.739 182.602 156.892 183.663C156.045 184.724 154.836 185.396 153.488 185.547L152.391 185.67C152.196 185.69 152.001 185.702 151.807 185.702V185.706ZM152.069 169.27C151.926 169.27 151.783 169.278 151.64 169.293L150.542 169.417C149.548 169.528 148.662 170.021 148.037 170.804C147.417 171.586 147.135 172.56 147.25 173.554L148.105 181.048C148.216 182.042 148.709 182.928 149.493 183.552C150.276 184.172 151.254 184.454 152.244 184.339L153.341 184.216C155.389 183.981 156.868 182.125 156.633 180.079L155.779 172.584C155.667 171.59 155.174 170.704 154.391 170.08C153.723 169.548 152.912 169.266 152.069 169.266V169.27Z" fill="#45BEFF"/>
        <path d="M114.222 171.138L113.923 173.633C113.824 174.623 113.331 175.513 112.54 176.129C111.749 176.749 110.782 177.043 109.792 176.92L108.703 176.796C107.542 176.673 106.576 176.029 105.956 175.115L106.254 172.568C106.476 170.665 108.083 169.254 109.963 169.254C110.11 169.254 110.234 169.278 110.385 169.278L111.498 169.401C112.488 169.524 113.379 170.021 113.995 170.812C114.071 170.911 114.17 171.034 114.218 171.134L114.222 171.138Z" fill="white"/>
        <path d="M156.049 175.095C155.48 176.009 154.49 176.677 153.329 176.8L152.24 176.923C151.25 177.047 150.26 176.749 149.492 176.133C148.701 175.513 148.204 174.623 148.109 173.637L147.811 171.114C148.403 170.2 149.369 169.532 150.53 169.409L151.643 169.286C151.767 169.286 151.914 169.262 152.065 169.262C152.904 169.262 153.723 169.56 154.391 170.076C155.158 170.72 155.651 171.582 155.774 172.572L156.045 175.095H156.049Z" fill="white"/>
        <path d="M137.85 196.515H125.294C116.285 196.515 109.359 188.559 110.599 179.642L112.349 167.068C112.909 163.038 116.356 160.038 120.428 160.038H142.721C146.792 160.038 150.24 163.038 150.8 167.068L152.55 179.642C153.79 188.559 146.86 196.515 137.854 196.515H137.85Z" fill="#BFE9FF"/>
        <path d="M137.851 197.187H125.295C120.806 197.187 116.543 195.247 113.597 191.866C110.651 188.484 109.315 183.993 109.931 179.55L111.681 166.977C112.285 162.641 116.043 159.371 120.424 159.371H142.717C147.099 159.371 150.856 162.641 151.46 166.977L153.21 179.55C153.83 183.993 152.494 188.48 149.544 191.866C146.598 195.247 142.336 197.187 137.847 197.187H137.851ZM120.428 160.714C116.714 160.714 113.526 163.488 113.013 167.164L111.263 179.737C110.699 183.794 111.919 187.896 114.611 190.983C117.303 194.075 121.195 195.847 125.295 195.847H137.851C141.95 195.847 145.842 194.075 148.534 190.983C151.226 187.896 152.446 183.794 151.882 179.737L150.132 167.164C149.62 163.488 146.435 160.714 142.717 160.714H120.424H120.428Z" fill="#45BEFF"/>
        <path d="M136.881 186.747H126.253C118.627 186.747 112.719 181.247 113.78 175.123L113.967 174.09L115.279 166.468C115.403 165.781 115.653 165.125 116.063 164.561H147.071C147.477 165.121 147.759 165.781 147.882 166.468L149.163 174.09L149.349 175.123C150.411 181.247 144.535 186.747 136.877 186.747H136.881Z" fill="white"/>
        <path d="M143.246 37.5577C143.079 37.6848 142.845 37.8756 142.646 38.0544C142.435 38.2293 142.236 38.4319 142.034 38.6266C141.827 38.8134 141.64 39.028 141.445 39.2347C141.25 39.4373 141.056 39.644 140.877 39.8665L140.328 40.5182L139.815 41.2018C139.461 41.6468 139.155 42.1317 138.841 42.6085C137.601 44.5279 136.622 46.6063 135.827 48.7483L135.286 50.3776C135.096 50.9141 134.988 51.4863 134.837 52.0347C134.519 53.1315 134.344 54.2721 134.133 55.3967C134.014 55.957 133.966 56.5332 133.899 57.1015L133.704 58.8103C133.629 59.9588 133.593 61.1112 133.537 62.2557L129.307 62.0411C129.458 60.8012 129.585 59.5614 129.76 58.3294L130.106 56.4895C130.225 55.8775 130.321 55.2616 130.495 54.6575C130.814 53.4455 131.096 52.2334 131.529 51.0532C131.74 50.465 131.903 49.861 132.153 49.2848L132.873 47.5481C133.911 45.2671 135.147 43.0735 136.658 41.0706C137.04 40.5739 137.414 40.0692 137.839 39.6042L138.459 38.8969L139.119 38.2213C139.334 37.9908 139.569 37.7762 139.803 37.5656C140.038 37.351 140.264 37.1324 140.515 36.9337C140.761 36.7311 141 36.5244 141.262 36.3337C141.525 36.135 141.767 35.9601 142.093 35.7495L143.254 37.5537L143.246 37.5577Z" fill="#1474BF"/>
        <path d="M142.463 36.7983C140.579 38.1772 139 40.0211 137.652 41.9564C136.308 43.9077 135.227 46.0337 134.336 48.2273L133.728 49.8964C133.513 50.4488 133.386 51.0329 133.211 51.5972C132.849 52.7258 132.631 53.8942 132.38 55.0546C132.237 55.6308 132.173 56.2229 132.086 56.8071L131.831 58.5675C131.72 59.7478 131.648 60.932 131.553 62.1163L130.615 62.0686C130.73 60.8645 130.821 59.6604 130.957 58.4602L131.243 56.672C131.342 56.0759 131.418 55.4758 131.573 54.8916C131.847 53.7153 132.09 52.5311 132.479 51.3826C132.666 50.8064 132.806 50.2183 133.036 49.6579L133.684 47.965C134.626 45.7396 135.764 43.5897 137.171 41.6187C138.591 39.6595 140.197 37.8275 142.209 36.4009L142.467 36.8022L142.463 36.7983Z" fill="#40BFFF"/>
        <path d="M150.9 35.4275C150.343 38.5589 147.353 40.6452 144.22 40.0929C141.087 39.5365 139 36.5481 139.553 33.4166C140.109 30.2852 143.099 28.1989 146.232 28.7512C149.365 29.3076 151.453 32.296 150.9 35.4275Z" fill="#45BEFF"/>
        <path d="M145.23 40.84C144.86 40.84 144.483 40.8082 144.105 40.7406C142.415 40.4426 140.944 39.5007 139.962 38.0979C138.98 36.6912 138.602 34.9903 138.904 33.3014C139.203 31.6125 140.145 30.1421 141.548 29.1605C142.956 28.179 144.658 27.8015 146.347 28.1035C149.834 28.7234 152.168 32.0615 151.548 35.5427C150.995 38.6503 148.28 40.84 145.23 40.84ZM145.214 29.3235C144.18 29.3235 143.171 29.6374 142.304 30.2415C141.187 31.0203 140.439 32.1887 140.204 33.5319C139.966 34.8711 140.264 36.2262 141.047 37.3429C141.827 38.4596 142.996 39.2067 144.339 39.4411C147.111 39.9339 149.763 38.082 150.252 35.3122C150.745 32.5463 148.888 29.8917 146.121 29.4029C145.819 29.3513 145.52 29.3235 145.218 29.3235H145.214Z" fill="#1474BF"/>
        <path d="M149.071 32.9678C148.796 34.5057 147.329 35.531 145.787 35.2607C144.248 34.9865 143.222 33.5202 143.492 31.9783C143.767 30.4403 145.234 29.4151 146.777 29.6853C148.315 29.9595 149.341 31.4259 149.071 32.9678Z" fill="#D1EFFF"/>
        <path d="M186.659 137.184L189.093 137.617C194.834 138.642 200.432 135.372 201.597 130.321L204.042 119.69C205.203 114.636 201.494 109.712 195.752 108.687L193.319 108.253C187.578 107.228 181.98 110.499 180.815 115.55L178.369 126.18C177.208 131.235 180.918 136.158 186.659 137.184Z" fill="#BFE9FF"/>
        <path d="M191.2 138.476C190.468 138.476 189.725 138.412 188.977 138.277L186.544 137.844C183.399 137.283 180.664 135.551 179.038 133.099C177.626 130.965 177.157 128.457 177.718 126.033L180.163 115.403C181.403 110.014 187.355 106.509 193.438 107.594L195.872 108.027C199.017 108.588 201.752 110.316 203.378 112.772C204.79 114.906 205.259 117.414 204.698 119.842L202.253 130.472C201.168 135.201 196.448 138.476 191.2 138.476ZM186.779 136.524L189.212 136.957C194.595 137.919 199.86 134.875 200.941 130.17L203.386 119.54C203.859 117.477 203.458 115.335 202.253 113.511C200.83 111.361 198.416 109.843 195.633 109.347L193.2 108.913C187.816 107.952 182.552 110.996 181.471 115.701L179.026 126.331C178.552 128.394 178.954 130.536 180.159 132.36C181.582 134.51 183.996 136.028 186.779 136.524Z" fill="#45BEFF"/>
        <path d="M203.383 119.532L200.933 130.162C199.868 134.883 194.6 137.923 189.208 136.962L186.783 136.516C183.988 136.024 181.59 134.514 180.155 132.364C178.942 130.536 178.549 128.41 179.018 126.331L181.467 115.701C182.258 112.264 185.276 109.716 188.938 108.977C190.298 108.679 191.733 108.655 193.192 108.929L195.641 109.351C198.413 109.843 200.838 111.377 202.246 113.527C202.913 114.517 203.335 115.606 203.506 116.742C203.629 117.656 203.605 118.622 203.383 119.536V119.532Z" fill="#BFE9FF"/>
        <path d="M203.51 116.738C201.752 118.395 199.081 119.21 196.385 118.741L194.604 118.419C190.449 117.676 187.753 114.092 188.592 110.436L188.938 108.977C190.298 108.679 191.733 108.655 193.192 108.929L195.641 109.351C198.413 109.843 200.838 111.377 202.245 113.527C202.913 114.517 203.335 115.606 203.506 116.742L203.51 116.738Z" fill="white"/>
        <path d="M76.7245 137.188L74.2912 137.621C68.5499 138.647 62.9517 135.376 61.7868 130.325L59.3415 119.695C58.1806 114.64 61.8901 109.716 67.6314 108.691L70.0647 108.258C75.806 107.233 81.4042 110.503 82.5691 115.554L85.0143 126.184C86.1753 131.239 82.4657 136.163 76.7245 137.188Z" fill="#BFE9FF"/>
        <path d="M72.1837 138.48C66.9355 138.48 62.22 135.205 61.1306 130.476L58.6853 119.846C58.1287 117.422 58.5979 114.91 60.0054 112.78C61.6276 110.324 64.363 108.596 67.512 108.035L69.9453 107.602C76.0245 106.517 81.9805 110.022 83.221 115.411L85.6662 126.041C86.2229 128.466 85.7537 130.977 84.3462 133.107C82.724 135.563 79.9886 137.292 76.8396 137.856L74.4063 138.289C73.6588 138.42 72.9153 138.488 72.1837 138.488V138.48ZM72.1837 108.739C71.5237 108.739 70.8558 108.794 70.1878 108.918L67.7545 109.351C64.9674 109.848 62.5579 111.366 61.1345 113.516C59.9298 115.34 59.5283 117.478 60.0014 119.544L62.4466 130.174C63.5281 134.875 68.7883 137.923 74.1757 136.962L76.609 136.529C79.3922 136.032 81.8056 134.514 83.229 132.364C84.4337 130.54 84.8353 128.402 84.3621 126.339L81.9169 115.709C80.9706 111.592 76.8197 108.743 72.1837 108.743V108.739Z" fill="#45BEFF"/>
        <path d="M60.0015 119.532L62.4507 130.162C63.5162 134.883 68.7844 137.923 74.1758 136.962L76.6011 136.516C79.3962 136.024 81.7977 134.514 83.2291 132.364C84.4417 130.536 84.8353 128.41 84.3662 126.331L81.917 115.701C81.1258 112.264 78.108 109.716 74.4461 108.977C73.0864 108.679 71.651 108.655 70.1919 108.929L67.7427 109.351C64.9714 109.843 62.5501 111.377 61.1386 113.527C60.4706 114.517 60.0492 115.606 59.8782 116.742C59.755 117.656 59.7788 118.622 60.0015 119.536V119.532Z" fill="#BFE9FF"/>
        <path d="M59.874 116.738C61.6314 118.395 64.3032 119.21 66.9989 118.741L68.7802 118.419C72.9351 117.676 75.6308 114.092 74.7918 110.436L74.4459 108.977C73.0862 108.679 71.6508 108.655 70.1916 108.929L67.7425 109.351C64.9712 109.843 62.5499 111.377 61.1384 113.527C60.4704 114.517 60.049 115.606 59.878 116.742L59.874 116.738Z" fill="white"/>
        <path d="M130.571 63.2847H135.771C168.756 63.2847 195.534 90.0492 195.534 123.017V124.173C195.534 147.703 176.422 166.806 152.88 166.806H113.462C89.9206 166.806 70.8081 147.703 70.8081 124.173V123.017C70.8081 90.0492 97.5862 63.2847 130.571 63.2847Z" fill="white"/>
        <path d="M152.88 167.466H113.462C89.5785 167.466 70.1479 148.045 70.1479 124.173V123.017C70.1479 89.7154 97.2521 62.625 130.571 62.625H135.771C169.09 62.625 196.194 89.7154 196.194 123.017V124.173C196.194 148.045 176.763 167.466 152.88 167.466ZM130.571 63.9443C97.9837 63.9443 71.468 90.4426 71.468 123.017V124.173C71.468 147.318 90.3061 166.146 113.462 166.146H152.88C176.036 166.146 194.874 147.318 194.874 124.173V123.017C194.874 90.4466 168.362 63.9443 135.771 63.9443H130.571Z" fill="#45BEFF"/>
        <path d="M149.166 174.09H113.967L115.279 166.468C115.403 165.781 115.653 165.125 116.063 164.561H147.071C147.477 165.121 147.759 165.781 147.882 166.468L149.163 174.09H149.166Z" fill="#D1EFFF"/>
        <path d="M194.874 117.243V124.166C194.874 147.306 176.024 166.146 152.872 166.146H113.47C90.3183 166.146 71.4683 147.306 71.4683 124.166V117.243C76.2156 136.179 93.4355 149.901 113.47 149.901H152.872C172.907 149.901 190.123 136.179 194.874 117.243Z" fill="#D1EFFF"/>
        <path d="M130.101 96.1333H136.24C158.51 96.1333 176.588 114.203 176.588 136.461V143.376C176.588 158.56 164.255 170.887 149.063 170.887H117.279C102.087 170.887 89.7534 158.56 89.7534 143.376V136.461C89.7534 114.203 107.832 96.1333 130.101 96.1333Z" fill="#003780"/>
        <path d="M149.063 171.257H117.279C101.896 171.257 89.3838 158.751 89.3838 143.375V136.461C89.3838 114.02 107.649 95.7637 130.102 95.7637H136.241C158.693 95.7637 176.958 114.02 176.958 136.461V143.375C176.958 158.751 164.446 171.257 149.063 171.257ZM130.102 96.5028C108.059 96.5028 90.1273 114.425 90.1273 136.457V143.371C90.1273 158.337 102.31 170.51 117.279 170.51H149.063C164.036 170.51 176.215 158.333 176.215 143.371V136.457C176.215 114.425 158.283 96.5028 136.241 96.5028H130.102Z" fill="white"/>
        <path d="M173.627 136.262V142.692C173.627 156.859 162.148 168.328 147.978 168.328H118.369C104.194 168.328 92.7197 156.855 92.7197 142.692V136.262C92.7197 127.98 95.3916 120.343 99.9162 114.135C106.767 104.765 117.824 98.6846 130.316 98.6846H136.03C148.817 98.6846 160.124 105.063 166.923 114.831C171.154 120.911 173.627 128.306 173.627 136.266V136.262Z" fill="#0061AD"/>
        <path d="M166.923 114.827C162.299 119.623 155.766 122.616 148.57 122.616H118.937C111.391 122.616 104.592 119.353 99.916 114.135C106.767 104.765 117.824 98.6846 130.316 98.6846H136.03C148.816 98.6846 160.124 105.063 166.923 114.831V114.827Z" fill="#42ADFF"/>
        <path d="M162.498 138.019V142.692C162.498 152.953 154.16 161.282 143.898 161.282H122.428C112.162 161.282 103.853 152.949 103.853 142.692V138.019C103.853 131.565 106.103 125.632 109.864 120.959C114.862 114.751 122.504 110.773 131.112 110.773H135.243C143.974 110.773 151.743 114.879 156.713 121.257C160.351 125.878 162.502 131.688 162.502 138.019H162.498Z" fill="#004C96"/>
        <path d="M156.709 121.257C154.16 122.147 151.417 122.616 148.57 122.616H118.937C115.744 122.616 112.679 122.024 109.86 120.959C114.858 114.751 122.499 110.773 131.107 110.773H135.238C143.97 110.773 151.739 114.879 156.709 121.257Z" fill="#1E8FE8"/>
        <path d="M149.377 151.482C151.512 151.482 153.059 153.223 152.618 155.035C150.725 162.792 142.765 168.578 133.243 168.578C123.72 168.578 115.84 162.792 113.951 155.031C113.51 153.219 115.057 151.479 117.192 151.479H149.377V151.482Z" fill="#45BEFF"/>
        <path d="M133.243 169.62C123.502 169.62 114.965 163.591 112.942 155.282C112.671 154.177 112.934 153.016 113.653 152.098C114.48 151.049 115.768 150.445 117.192 150.445H149.377C150.801 150.445 152.089 151.049 152.916 152.098C153.64 153.016 153.898 154.177 153.628 155.282C151.604 163.591 143.032 169.62 133.243 169.62ZM117.192 152.524C116.421 152.524 115.709 152.846 115.287 153.382C114.957 153.803 114.842 154.304 114.961 154.793C116.762 162.184 124.452 167.545 133.247 167.545C142.042 167.545 149.811 162.18 151.612 154.793C151.731 154.304 151.612 153.803 151.286 153.382C150.864 152.846 150.149 152.524 149.381 152.524H117.196H117.192Z" fill="#003F91"/>
        <path d="M146.582 153.048C148.347 153.048 149.627 154.165 149.262 155.329C147.699 160.312 141.119 164.028 133.25 164.028C125.382 164.028 118.869 160.308 117.307 155.325C116.941 154.161 118.221 153.044 119.987 153.044H146.586L146.582 153.048Z" fill="white"/>
        <path d="M145.29 65.9792C143.914 67.8867 141.664 69.1345 139.131 69.1345H124.313C122.062 69.1345 120.031 68.1649 118.623 66.6031V66.2892C118.623 63.3206 120.062 60.666 122.281 59.0089C123.78 57.8843 125.657 57.1968 127.688 57.1968H136.252C138.316 57.1968 140.193 57.8843 141.692 59.0089C143.787 60.6024 145.222 63.1338 145.286 65.9752L145.29 65.9792Z" fill="#BAE7FF"/>
        <path d="M139.131 69.7941H124.313C121.959 69.7941 119.704 68.7927 118.134 67.0441L117.963 66.8574V66.2931C117.963 63.2371 119.43 60.3163 121.887 58.4843C123.581 57.2126 125.589 56.541 127.688 56.541H136.252C138.375 56.541 140.391 57.2126 142.089 58.4843C144.443 60.2765 145.882 63.0702 145.95 65.9672V66.1897L145.826 66.3686C144.276 68.5145 141.775 69.7981 139.131 69.7981V69.7941ZM119.287 66.3447C120.599 67.6998 122.42 68.4748 124.316 68.4748H139.135C141.278 68.4748 143.318 67.4694 144.626 65.7725C144.502 63.3563 143.27 61.0395 141.298 59.5374C139.835 58.4406 138.093 57.8604 136.26 57.8604H127.696C125.883 57.8604 124.149 58.4406 122.686 59.5413C120.559 61.1269 119.291 63.6504 119.291 66.2931V66.3447H119.287Z" fill="#45BEFF"/>
        <path d="M142.948 61.2303C142.137 63.0424 140.292 64.2942 138.165 64.2942H125.005C123.16 64.2942 121.502 63.3246 120.567 61.89C121.1 60.9839 121.82 60.2011 122.695 59.5454C124.162 58.4525 125.883 57.8564 127.696 57.8564H136.261C138.105 57.8564 139.823 58.4486 141.294 59.5454C141.918 60.0461 142.483 60.6064 142.952 61.2303H142.948Z" fill="white"/>
        <path d="M100.516 147.123C99.0134 147.123 97.6814 146.054 97.4031 144.524C96.6556 140.435 97.4588 136.318 99.6058 133.226C101.315 130.766 103.777 129.141 106.532 128.648C112.941 127.507 119.283 132.757 120.67 140.351C120.985 142.072 119.843 143.721 118.122 144.035C116.4 144.349 114.75 143.208 114.436 141.488C113.689 137.387 110.579 134.366 107.645 134.883C106.254 135.129 105.339 136.083 104.814 136.838C103.641 138.527 103.2 140.975 103.641 143.383C103.955 145.104 102.814 146.753 101.093 147.067C100.902 147.103 100.707 147.119 100.52 147.119L100.516 147.123Z" fill="#007BDB"/>
        <path d="M100.52 146.066C99.5182 146.066 98.6316 145.35 98.4447 144.333C97.7489 140.518 98.4885 136.687 100.472 133.83C102.019 131.601 104.238 130.13 106.715 129.689C112.551 128.652 118.344 133.52 119.629 140.542C119.839 141.69 119.076 142.787 117.931 142.998C116.786 143.208 115.684 142.445 115.474 141.301C114.607 136.556 111.005 133.214 107.458 133.846C105.713 134.156 104.584 135.316 103.943 136.238C102.592 138.181 102.103 140.856 102.6 143.574C102.81 144.723 102.047 145.823 100.902 146.03C100.775 146.054 100.647 146.066 100.52 146.066Z" fill="#45BEFF"/>
        <path d="M100.52 144.627C100.202 144.627 99.9157 144.401 99.8601 144.075C99.2319 140.633 99.8839 137.196 101.657 134.648C102.985 132.737 104.874 131.477 106.969 131.104C112.03 130.202 117.072 134.553 118.213 140.8C118.281 141.166 118.038 141.515 117.672 141.583C117.311 141.651 116.957 141.408 116.889 141.043C115.879 135.523 111.53 131.66 107.208 132.431C105.438 132.745 103.904 133.778 102.766 135.415C101.2 137.673 100.623 140.741 101.188 143.832C101.256 144.198 101.013 144.548 100.647 144.615C100.608 144.623 100.564 144.627 100.524 144.627H100.52Z" fill="white"/>
        <path d="M165.261 147.123C165.07 147.123 164.879 147.107 164.688 147.071C162.967 146.757 161.826 145.108 162.14 143.387C162.581 140.979 162.14 138.531 160.967 136.842C160.442 136.087 159.527 135.137 158.136 134.887C155.21 134.366 152.096 137.39 151.345 141.492C151.031 143.212 149.377 144.349 147.659 144.039C145.938 143.725 144.796 142.076 145.111 140.355C146.498 132.761 152.84 127.511 159.249 128.652C162.004 129.145 164.466 130.77 166.175 133.23C168.322 136.317 169.121 140.435 168.378 144.528C168.1 146.058 166.764 147.127 165.265 147.127L165.261 147.123Z" fill="#007BDB"/>
        <path d="M165.257 146.066C165.13 146.066 165.002 146.054 164.875 146.03C163.726 145.819 162.967 144.723 163.177 143.574C163.674 140.856 163.185 138.181 161.834 136.238C161.193 135.32 160.068 134.16 158.319 133.846C154.768 133.21 151.17 136.556 150.303 141.301C150.093 142.449 148.995 143.209 147.846 142.998C146.697 142.787 145.938 141.687 146.148 140.542C147.433 133.516 153.222 128.652 159.062 129.689C161.539 130.13 163.758 131.601 165.305 133.83C167.293 136.691 168.032 140.518 167.332 144.333C167.145 145.35 166.259 146.066 165.257 146.066Z" fill="#45BEFF"/>
        <path d="M165.257 144.627C165.217 144.627 165.177 144.627 165.134 144.615C164.768 144.548 164.525 144.198 164.593 143.832C165.158 140.741 164.581 137.673 163.015 135.416C161.877 133.778 160.339 132.745 158.573 132.431C154.24 131.66 149.898 135.523 148.892 141.043C148.824 141.408 148.474 141.651 148.109 141.583C147.743 141.516 147.5 141.166 147.568 140.8C148.709 134.553 153.751 130.206 158.812 131.104C160.911 131.477 162.796 132.737 164.124 134.649C165.893 137.196 166.549 140.633 165.921 144.075C165.861 144.401 165.579 144.627 165.261 144.627H165.257Z" fill="white"/>
    </g>
    <defs>
        <linearGradient id="paint0_linear_1356_5243" x1="132" y1="0" x2="132" y2="240" gradientUnits="userSpaceOnUse">
            <stop stop-color="#0165FC"/>
            <stop offset="1" stop-color="#0043A9"/>
        </linearGradient>
        <clipPath id="clip0_1356_5243">
            <rect width="264" height="183" fill="white" transform="translate(0 28)"/>
        </clipPath>
    </defs>
</svg>
