<svg width="32" height="32" viewBox="0 0 32 32" fill="none" xmlns="http://www.w3.org/2000/svg">
<g id="build_24px">
<path id="icon/action/build_24px" d="M16.6309 4.32916C13.9509 1.64916 9.93752 1.10249 6.71086 2.67582L11.5509 7.51582C12.0709 8.03582 12.0709 8.87582 11.5509 9.39582L9.43086 11.5158C8.91086 12.0492 8.07086 12.0492 7.55086 11.5158L2.71086 6.67582C1.15086 9.91582 1.69752 13.9025 4.37752 16.5825C6.85752 19.0625 10.4842 19.7158 13.5642 18.5558L24.1775 29.1692C25.5509 30.5425 27.7642 30.5425 29.1242 29.1692C30.4975 27.7958 30.4975 25.5825 29.1242 24.2225L18.5642 13.6492C19.7909 10.5292 19.1509 6.84916 16.6309 4.32916Z" fill="white"/>
</g>
</svg>
