<svg width="120" height="120" viewBox="0 0 120 120" fill="none" xmlns="http://www.w3.org/2000/svg">
<g id="business_center_24px">
<path id="icon/places/business_center_24px" fill-rule="evenodd" clip-rule="evenodd" d="M100 35H80C80 23.95 71.05 15 60 15C48.95 15 40 23.95 40 35H20C14.5 35 10 39.5 10 45V60C10 65.55 14.45 70 20 70H50V65C50 62.25 52.25 60 55 60H65C67.75 60 70 62.25 70 65V70H100C105.5 70 110 65.5 110 60V45C110 39.5 105.5 35 100 35ZM55 80C52.25 80 50 77.75 50 75H15.05V95C15.05 100.5 19.55 105 25.05 105H95C100.5 105 105 100.5 105 95V75H70C70 77.75 67.75 80 65 80H55ZM60 25C54.5 25 50 29.5 50 35H70C70 29.5 65.5 25 60 25Z" fill="#B9B9B9"/>
</g>
</svg>
