<svg width="16" height="16" viewBox="0 0 16 16" fill="none" xmlns="http://www.w3.org/2000/svg">
    <path fill-rule="evenodd" clip-rule="evenodd" d="M8 0.5C3.86 0.5 0.5 3.86 0.5 8C0.5 12.14 3.86 15.5 8 15.5C12.14 15.5 15.5 12.14 15.5 8C15.5 3.86 12.14 0.5 8 0.5ZM8 14C4.6925 14 2 11.3075 2 8C2 4.6925 4.6925 2 8 2C11.3075 2 14 4.6925 14 8C14 11.3075 11.3075 14 8 14ZM6.5 9.6275L10.91 5.2175C11.2025 4.925 11.6825 4.925 11.975 5.2175C12.2675 5.51 12.2675 5.9825 11.975 6.275L7.0325 11.2175C6.74 11.51 6.2675 11.51 5.975 11.2175L4.0325 9.275C3.74 8.9825 3.74 8.51 4.0325 8.2175C4.17262 8.07706 4.36286 7.99814 4.56125 7.99814C4.75964 7.99814 4.94988 8.07706 5.09 8.2175L6.5 9.6275Z" fill="#0165FC"/>
</svg>
