<svg width="28" height="28" viewBox="0 0 28 28" fill="none" xmlns="http://www.w3.org/2000/svg">
    <path fill-rule="evenodd" clip-rule="evenodd" d="M24.6665 0.666656H3.33317C1.8665 0.666656 0.666504 1.86666 0.666504 3.33332V27.3333L5.99984 22H24.6665C26.1332 22 27.3332 20.8 27.3332 19.3333V3.33332C27.3332 1.86666 26.1332 0.666656 24.6665 0.666656ZM15.3332 16.6667H12.6665V14H15.3332V16.6667ZM12.6665 9.99999C12.6665 10.7333 13.2665 11.3333 13.9998 11.3333C14.7332 11.3333 15.3332 10.7333 15.3332 9.99999V7.33332C15.3332 6.59999 14.7332 5.99999 13.9998 5.99999C13.2665 5.99999 12.6665 6.59999 12.6665 7.33332V9.99999Z" fill="black" fill-opacity="0.54"/>
</svg>
