<svg width="184" height="25" viewBox="0 0 184 25" fill="none" xmlns="http://www.w3.org/2000/svg">
<g id="FindMyJ b">
<path d="M0 18.5664V1.54492C0 1.18945 0.127604 0.888672 0.382812 0.642578C0.638021 0.396484 0.943359 0.273438 1.29883 0.273438H17.0625C17.418 0.273438 17.7188 0.401042 17.9648 0.65625C18.2201 0.911458 18.3477 1.2168 18.3477 1.57227V2.85742C18.3477 3.21289 18.2201 3.51823 17.9648 3.77344C17.7188 4.01953 17.418 4.14258 17.0625 4.14258H5.1543V8.95508H14.8477C15.2031 8.95508 15.5039 9.08268 15.75 9.33789C16.0052 9.5931 16.1328 9.89388 16.1328 10.2402V11.5391C16.1328 11.8945 16.0052 12.1999 15.75 12.4551C15.5039 12.7012 15.2031 12.8242 14.8477 12.8242H5.1543V18.5664C5.1543 18.9401 5.02669 19.2546 4.77148 19.5098C4.52539 19.7559 4.22461 19.8789 3.86914 19.8789H1.29883C0.943359 19.8789 0.638021 19.7559 0.382812 19.5098C0.127604 19.2546 0 18.9401 0 18.5664Z" fill="white"/>
<path d="M20.3164 2.03711V1.57227C20.3164 1.08919 20.4531 0.70638 20.7266 0.423828C21.0091 0.141276 21.3965 0 21.8887 0H23.584C24.0671 0 24.4499 0.141276 24.7324 0.423828C25.015 0.697266 25.1562 1.08008 25.1562 1.57227V2.03711C25.1562 2.52018 25.015 2.90299 24.7324 3.18555C24.459 3.4681 24.0762 3.60938 23.584 3.60938H21.8887C21.4056 3.60938 21.0228 3.4681 20.7402 3.18555C20.4577 2.90299 20.3164 2.52018 20.3164 2.03711ZM20.3711 19.0449V6.07031C20.3711 5.82422 20.4486 5.6237 20.6035 5.46875C20.7676 5.3138 20.9681 5.23633 21.2051 5.23633H24.2676C24.5137 5.23633 24.7142 5.31836 24.8691 5.48242C25.0241 5.63737 25.1016 5.83333 25.1016 6.07031V19.0449C25.1016 19.291 25.0195 19.4915 24.8555 19.6465C24.7005 19.8014 24.5046 19.8789 24.2676 19.8789H21.2051C20.959 19.8789 20.7585 19.8014 20.6035 19.6465C20.4486 19.4915 20.3711 19.291 20.3711 19.0449Z" fill="white"/>
<path d="M28.5195 19.0449V5.74219C28.5195 5.49609 28.597 5.29557 28.752 5.14062C28.916 4.97656 29.1165 4.89453 29.3535 4.89453H32.416C32.653 4.89453 32.849 4.97656 33.0039 5.14062C33.168 5.29557 33.25 5.49609 33.25 5.74219V6.60352C34.8177 5.2819 36.4857 4.62109 38.2539 4.62109C40.0312 4.62109 41.4759 5.16341 42.5879 6.24805C43.6999 7.32357 44.2559 8.97331 44.2559 11.1973V19.0449C44.2559 19.2819 44.1738 19.4824 44.0098 19.6465C43.8548 19.8014 43.6543 19.8789 43.4082 19.8789H40.3594C40.1224 19.8789 39.9219 19.8014 39.7578 19.6465C39.6029 19.4824 39.5254 19.2819 39.5254 19.0449V11.1973C39.5254 9.01888 38.6549 7.92969 36.9141 7.92969C35.7747 7.92969 34.5534 8.58138 33.25 9.88477V19.0449C33.25 19.2819 33.168 19.4824 33.0039 19.6465C32.849 19.8014 32.653 19.8789 32.416 19.8789H29.3535C29.1165 19.8789 28.916 19.8014 28.752 19.6465C28.597 19.4824 28.5195 19.2819 28.5195 19.0449Z" fill="white"/>
<path d="M53.4844 20.1523C51.5794 20.1523 49.9844 19.4824 48.6992 18.1426C47.4232 16.8027 46.7852 14.8841 46.7852 12.3867C46.7852 9.88021 47.446 7.96159 48.7676 6.63086C50.0983 5.29102 51.8848 4.62109 54.127 4.62109C55.2845 4.62109 56.6016 4.85352 58.0781 5.31836V1.12109C58.0781 0.875 58.1556 0.674479 58.3105 0.519531C58.4746 0.355469 58.6751 0.273438 58.9121 0.273438H61.9609C62.207 0.273438 62.4076 0.355469 62.5625 0.519531C62.7266 0.674479 62.8086 0.875 62.8086 1.12109V19.0449C62.8086 19.2819 62.7266 19.4824 62.5625 19.6465C62.4076 19.8014 62.207 19.8789 61.9609 19.8789H59.3359C59.0898 19.8789 58.8893 19.8014 58.7344 19.6465C58.5794 19.4824 58.502 19.2819 58.502 19.0449V18.6211C57.0618 19.6419 55.3893 20.1523 53.4844 20.1523ZM55.1113 7.92969C53.8535 7.92969 52.9648 8.28516 52.4453 8.99609C51.9258 9.69792 51.666 10.8281 51.666 12.3867C51.666 13.9453 51.9121 15.0801 52.4043 15.791C52.8965 16.502 53.6348 16.8574 54.6191 16.8574C55.6126 16.8574 56.7656 16.4473 58.0781 15.627V8.47656C56.9023 8.11198 55.9134 7.92969 55.1113 7.92969Z" fill="white"/>
<path d="M66.4453 18.5664V1.59961C66.4453 1.22591 66.5684 0.911458 66.8145 0.65625C67.0605 0.401042 67.3613 0.273438 67.7168 0.273438H73.2812C73.6367 0.273438 73.974 0.401042 74.293 0.65625C74.612 0.911458 74.8262 1.2168 74.9355 1.57227L78.9688 13.248L83.002 1.57227C83.1113 1.2168 83.3255 0.911458 83.6445 0.65625C83.9635 0.401042 84.3008 0.273438 84.6562 0.273438H90.2207C90.5762 0.273438 90.8724 0.401042 91.1094 0.65625C91.3555 0.911458 91.4785 1.22591 91.4785 1.59961V18.5664C91.4785 18.9401 91.3509 19.2546 91.0957 19.5098C90.8496 19.7559 90.5488 19.8789 90.1934 19.8789H87.7324C87.377 19.8789 87.0716 19.7559 86.8164 19.5098C86.5703 19.2546 86.4473 18.9401 86.4473 18.5664V5.20898L81.6211 18.6484C81.4935 18.9857 81.2702 19.2773 80.9512 19.5234C80.6322 19.7604 80.2949 19.8789 79.9395 19.8789H77.9844C77.6289 19.8789 77.2917 19.7604 76.9727 19.5234C76.6628 19.2773 76.4395 18.9857 76.3027 18.6484L71.4902 5.20898V18.5664C71.4902 18.9401 71.3626 19.2546 71.1074 19.5098C70.8613 19.7559 70.5605 19.8789 70.2051 19.8789H67.7441C67.3887 19.8789 67.0833 19.7559 66.8281 19.5098C66.5729 19.2546 66.4453 18.9401 66.4453 18.5664Z" fill="white"/>
<path d="M98.041 21.3008L99.832 21.5332C101.117 21.5332 102.015 20.5898 102.525 18.7031C100.976 18.7031 99.6816 18.2383 98.6426 17.3086C97.6035 16.3698 96.7103 14.7064 95.9629 12.3184L93.9258 5.71484C93.8984 5.64193 93.8848 5.5599 93.8848 5.46875C93.8848 5.36849 93.9395 5.25 94.0488 5.11328C94.1673 4.97656 94.3405 4.90365 94.5684 4.89453H97.4258C97.6901 4.89453 97.9408 4.98568 98.1777 5.16797C98.4238 5.34115 98.5833 5.5599 98.6562 5.82422L100.447 11.6211C100.894 13.043 101.345 14.0273 101.801 14.5742C102.266 15.1211 102.812 15.3945 103.441 15.3945L106.162 5.82422C106.235 5.5599 106.376 5.34115 106.586 5.16797C106.805 4.98568 107.046 4.89453 107.311 4.89453H110.195C110.423 4.89453 110.592 4.96745 110.701 5.11328C110.811 5.25911 110.865 5.38216 110.865 5.48242C110.865 5.57357 110.856 5.65104 110.838 5.71484L107.256 18.4844C106.618 20.7448 105.825 22.3581 104.877 23.3242C103.938 24.2904 102.726 24.7734 101.24 24.7734C99.7546 24.7734 98.7018 24.7188 98.082 24.6094C97.4714 24.5 97.0885 24.3633 96.9336 24.1992C96.7786 24.0443 96.7012 23.862 96.7012 23.6523V22.1484C96.7012 21.9023 96.7786 21.6973 96.9336 21.5332C97.0885 21.3783 97.2891 21.3008 97.5352 21.3008H98.041Z" fill="white"/>
<path d="M112.875 15.7637L115.172 16.0098H116.156C117.423 16.0098 118.339 15.75 118.904 15.2305C119.479 14.7109 119.766 13.8359 119.766 12.6055V1.57227C119.766 1.2168 119.889 0.911458 120.135 0.65625C120.39 0.401042 120.695 0.273438 121.051 0.273438H123.594C123.967 0.273438 124.282 0.401042 124.537 0.65625C124.792 0.911458 124.92 1.2168 124.92 1.57227V12.5645C124.92 14.8978 124.145 16.7025 122.596 17.9785C121.046 19.2454 118.945 19.8789 116.293 19.8789H112.424C112.068 19.8789 111.763 19.7559 111.508 19.5098C111.262 19.2546 111.139 18.9492 111.139 18.5938V17.0488C111.139 16.6934 111.257 16.3926 111.494 16.1465C111.74 15.8913 112.05 15.7637 112.424 15.7637H112.875Z" fill="white"/>
<path d="M167.535 1.12109C167.535 0.875 167.613 0.674479 167.768 0.519531C167.932 0.355469 168.132 0.273438 168.369 0.273438H171.432C171.669 0.273438 171.865 0.355469 172.02 0.519531C172.184 0.674479 172.266 0.875 172.266 1.12109V5.31836C173.742 4.85352 175.059 4.62109 176.217 4.62109C178.459 4.62109 180.241 5.29102 181.562 6.63086C182.884 7.96159 183.545 9.88477 183.545 12.4004C183.545 17.5684 180.651 20.1523 174.863 20.1523C173.542 20.1523 172.17 20.0065 170.748 19.7148C169.335 19.4141 168.264 19.0495 167.535 18.6211V1.12109ZM172.266 8.47656V16.543C173.049 16.7526 174.048 16.8574 175.26 16.8574C176.472 16.8574 177.342 16.5065 177.871 15.8047C178.409 15.1029 178.678 13.9681 178.678 12.4004C178.678 10.8327 178.413 9.69792 177.885 8.99609C177.365 8.28516 176.481 7.92969 175.232 7.92969C174.43 7.92969 173.441 8.11198 172.266 8.47656Z" fill="white"/>
</g>
</svg>
