<svg width="24" height="16" viewBox="0 0 24 16" fill="none" xmlns="http://www.w3.org/2000/svg">
<path d="M1.61166 9.33997L19.1717 9.33997L15.3317 13.18C14.8117 13.7 14.8117 14.54 15.3317 15.06C15.5808 15.3096 15.919 15.45 16.2717 15.45C16.6244 15.45 16.9626 15.3096 17.2117 15.06L23.3317 8.93997C23.8517 8.41997 23.8517 7.57997 23.3317 7.05997L17.2117 0.939968C16.6917 0.419968 15.8517 0.419968 15.3317 0.939968C14.8117 1.45997 14.8117 2.29997 15.3317 2.81997L19.1717 6.6733L1.61166 6.6733C0.87833 6.6733 0.27833 7.2733 0.27833 8.00664C0.27833 8.73997 0.87833 9.33997 1.61166 9.33997Z" fill="white"/>
</svg>
