<svg width="32" height="32" viewBox="0 0 32 32" fill="none" xmlns="http://www.w3.org/2000/svg">
    <path d="M8.95801 27.469V31.3601C8.95801 31.7185 9.23959 32 9.59798 32H13.489C13.6554 32 13.8218 31.9361 13.937 31.8081L27.9139 17.8438L23.1141 13.0439L9.15 27.0082C9.022 27.1362 8.95801 27.2898 8.95801 27.469Z" fill="#0165FC"/>
    <path d="M31.6257 14.1322C32.1249 13.633 32.1249 12.8266 31.6257 12.3275L28.6306 9.33238C28.3915 9.0927 28.0668 8.95801 27.7283 8.95801C27.3897 8.95801 27.0651 9.0927 26.8259 9.33238L24.4836 11.6747L29.2834 16.4745L31.6257 14.1322Z" fill="#0165FC"/>
    <path d="M12.1594 0L14.4064 6.53975L20.4789 8.95967L14.4064 11.3796L12.1594 17.9193L9.91232 11.3796L3.83978 8.95967L9.91232 6.53975L12.1594 0Z" fill="#0165FC"/>
    <path d="M5.11974 14.0796L6.50254 18.2837L10.2395 19.8394L6.50254 21.395L5.11974 25.5992L3.73695 21.395L0 19.8394L3.73695 18.2837L5.11974 14.0796Z" fill="#0165FC"/>
</svg>
