<svg width="24" height="22" viewBox="0 0 24 22" fill="none" xmlns="http://www.w3.org/2000/svg">
    <path fill-rule="evenodd" clip-rule="evenodd" d="M10.1116 0.0722656H17.0243C18.5808 0.0722656 19.8054 1.04491 20.1602 2.52103C20.2175 2.76133 20.2518 3.01308 20.2518 3.26482V12.3504C20.2518 14.1584 18.8555 15.5659 17.0472 15.5659H8.98999C8.79542 15.5659 8.65809 15.6231 8.5093 15.7375C7.82841 16.2753 7.14467 16.813 6.46092 17.3508L6.46058 17.351C5.77677 17.8888 5.09296 18.4266 4.41202 18.9644C4.19456 19.136 3.97711 19.2734 3.67954 19.2505C3.2103 19.2161 2.90129 18.8614 2.88984 18.3694V15.8176C2.88984 15.6231 2.83262 15.543 2.62661 15.5201C1.18455 15.3027 0.0286123 14.0211 0.0171674 12.5564C-0.00572246 9.39818 -0.00572246 6.2514 0.0171674 3.09318C0.0286123 1.41108 1.45923 0.0837085 3.2103 0.0722656H10.1116ZM10.1659 4.50705L11.0797 7.09875L13.5492 8.05777L11.0797 9.01678L10.1659 11.6085L9.2521 9.01678L6.78261 8.05777L9.2521 7.09875L10.1659 4.50705ZM23.9428 9.24942C23.7597 8.26534 22.9013 7.38424 21.9628 7.24692V7.53299V12.339C21.9628 12.8196 21.9056 13.2887 21.7797 13.7465C21.1617 15.8634 19.2732 17.3052 17.03 17.3052L17.0182 17.3052C14.6302 17.3167 12.2536 17.328 9.87696 17.3052C9.46495 17.3052 9.13304 17.3967 8.83548 17.6714C8.69814 17.7972 8.69814 17.8659 8.7897 18.0146C9.31616 18.8156 10.0715 19.239 11.0329 19.239H16.927C17.0987 19.239 17.2246 19.2848 17.3619 19.3878C18.3577 20.1773 19.3648 20.9669 20.372 21.7565C20.6695 21.9968 20.99 22.0769 21.3448 21.9167C21.6996 21.745 21.8484 21.4361 21.8484 21.047V19.4107C21.8484 19.2619 21.8941 19.2047 22.0429 19.1589C23.2675 18.8156 24 17.8544 24 16.5728V9.86734C24 9.66136 23.9771 9.45539 23.9428 9.24942Z" fill="#0165FC"/>
</svg>
