<svg width="24" height="24" viewBox="0 0 24 24" fill="none" xmlns="http://www.w3.org/2000/svg">
    <g clip-path="url(#clip0_2624_6837)">
        <path d="M2.26759 0C6.41948 0 10.574 0 14.7259 0C14.8224 0.0268037 14.9216 0.0536073 15.0181 0.080411C16.1546 0.399375 17.015 1.45276 17.0257 2.62676C17.0471 4.84342 17.031 7.06008 17.0364 9.27675C17.0364 9.45633 16.9721 9.53138 16.7898 9.52334C16.4065 9.50726 16.0259 9.55282 15.648 9.60911C12.4851 10.0782 9.75653 12.7344 9.54746 16.3476C9.45633 17.9317 9.86643 19.3925 10.7456 20.7192C10.7938 20.7943 10.901 20.8693 10.8448 20.9631C10.7992 21.0409 10.6866 21.0034 10.6035 21.0034C7.97141 21.0034 5.34197 21.0087 2.70985 21.0034C1.23029 20.998 0 19.765 0 18.2774C0 13.0882 0 7.89636 0 2.70449C0 2.0344 0.235872 1.45544 0.65937 0.946169C1.08287 0.43958 1.64038 0.163502 2.26759 0ZM8.53429 8.02502C7.05204 8.02502 5.5698 8.02502 4.08488 8.02502C3.48448 8.02502 3.03685 8.44315 3.03954 8.99531C3.03954 9.54478 3.48716 9.96292 4.08756 9.96292C7.03864 9.96292 9.98705 9.96292 12.9381 9.96292C13.0319 9.96292 13.1258 9.96292 13.2169 9.9388C13.7181 9.82354 14.0183 9.38128 13.962 8.85057C13.9138 8.39491 13.4983 8.0277 13.0051 8.02502C11.5149 8.01966 10.0246 8.02502 8.53429 8.02502ZM6.49989 13.9513C7.32008 13.9513 8.13759 13.9513 8.95778 13.9513C9.17489 13.9513 9.37592 13.9138 9.55551 13.7878C9.89859 13.5493 10.0567 13.1284 9.94684 12.7425C9.81818 12.2922 9.45633 12.0107 8.94974 12.0107C7.32812 12.0054 5.70382 12.0027 4.0822 12.0107C3.48716 12.0107 3.02077 12.453 3.04222 12.9917C3.06366 13.568 3.50592 13.9701 4.09024 13.9567C4.89435 13.9379 5.69578 13.9513 6.49989 13.9513ZM6.01742 4.03395C5.37145 4.03395 4.72281 4.03395 4.07684 4.03395C3.92138 4.03395 3.76591 4.04467 3.62118 4.11168C3.2352 4.28859 2.98593 4.72817 3.05562 5.1195C3.14675 5.62341 3.50324 5.96382 4.02323 5.96918C5.34733 5.98526 6.67411 5.98526 7.99821 5.96918C8.56377 5.96382 9.00067 5.50279 8.98995 4.98816C8.97923 4.43869 8.55037 4.03931 7.95801 4.03663C7.31204 4.03127 6.66339 4.03663 6.01742 4.03663V4.03395Z" fill="#0165FC"/>
        <path d="M24 23.2783C23.7936 23.7367 23.4666 24.0235 22.9332 23.9967C22.6437 23.9833 22.4159 23.8466 22.2149 23.6456C21.4429 22.8709 20.6656 22.1043 19.9017 21.3244C19.7489 21.1689 19.6417 21.1448 19.446 21.26C16.2028 23.1631 12.1367 21.2386 11.5363 17.5209C11.0672 14.61 13.2115 11.8171 16.1572 11.4981C19.052 11.1872 21.6413 13.2243 21.9897 16.0923C22.1345 17.277 21.8959 18.392 21.2848 19.4159C21.1722 19.6062 21.1776 19.7161 21.3384 19.8743C22.1077 20.6275 22.8635 21.394 23.6274 22.1553C23.7909 22.3188 23.9223 22.4957 24 22.7155V23.2783ZM19.9634 16.7356C20.0089 15.2238 18.8028 13.5379 16.755 13.5138C14.9913 13.4923 13.5305 14.9719 13.5278 16.7356C13.5224 18.5019 14.9752 19.9466 16.755 19.9466C18.5481 19.9466 19.966 18.5314 19.966 16.7382L19.9634 16.7356Z" fill="#0165FC"/>
    </g>
    <defs>
        <clipPath id="clip0_2624_6837">
            <rect width="24" height="24" fill="white"/>
        </clipPath>
    </defs>
</svg>
