<svg width="18" height="18" viewBox="0 0 18 18" fill="none" xmlns="http://www.w3.org/2000/svg">
    <path fill-rule="evenodd" clip-rule="evenodd" d="M2.25 5.25C2.25 5.6625 2.5875 6 3 6H15C15.4125 6 15.75 5.6625 15.75 5.25C15.75 4.8375 15.4125 4.5 15 4.5H3C2.5875 4.5 2.25 4.8375 2.25 5.25ZM3 13.5H6C6.4125 13.5 6.75 13.1625 6.75 12.75C6.75 12.3375 6.4125 12 6 12H3C2.5875 12 2.25 12.3375 2.25 12.75C2.25 13.1625 2.5875 13.5 3 13.5ZM10.5 9.75H3C2.5875 9.75 2.25 9.4125 2.25 9C2.25 8.5875 2.5875 8.25 3 8.25H10.5C10.9125 8.25 11.25 8.5875 11.25 9C11.25 9.4125 10.9125 9.75 10.5 9.75Z" fill="white"/>
</svg>
