<svg width="364" height="49" viewBox="0 0 364 49" fill="none" xmlns="http://www.w3.org/2000/svg">
    <path fill-rule="evenodd" clip-rule="evenodd" d="M202.841 23.103L199.121 18.863L199.641 13.243C199.741 12.243 199.061 11.323 198.101 11.103L192.581 9.84299L189.701 4.98299C189.181 4.12299 188.121 3.76299 187.201 4.16299L182.001 6.42299L176.821 4.20299C175.901 3.80299 174.821 4.16299 174.321 5.02299L171.421 9.86299L165.921 11.103C164.941 11.323 164.261 12.223 164.361 13.243L164.881 18.843L161.161 23.103C160.501 23.863 160.501 24.983 161.161 25.743L164.881 29.983L164.361 35.623C164.261 36.623 164.941 37.543 165.901 37.763L171.421 39.023L174.301 43.863C174.821 44.723 175.881 45.083 176.821 44.683L182.001 42.423L187.181 44.643C188.101 45.043 189.181 44.683 189.681 43.823L192.561 38.963L198.081 37.703C199.061 37.483 199.721 36.563 199.621 35.563L199.101 29.943L202.821 25.703C203.501 24.983 203.501 23.863 202.841 23.103ZM180.001 34.423V30.423H184.001V34.423H180.001ZM180.001 24.423C180.001 25.523 180.901 26.423 182.001 26.423C183.101 26.423 184.001 25.523 184.001 24.423V16.423C184.001 15.323 183.101 14.423 182.001 14.423C180.901 14.423 180.001 15.323 180.001 16.423V24.423Z" fill="#0165FC"/>
</svg>
