<svg width="16" height="16" viewBox="0 0 16 16" fill="none" xmlns="http://www.w3.org/2000/svg">
    <g clip-path="url(#clip0_2634_5890)">
        <path fill-rule="evenodd" clip-rule="evenodd" d="M10.8055 13.1089C10.1686 13.8073 9.42693 14.4328 8.59408 14.9386C8.49154 15.0138 8.35255 15.0229 8.23861 14.95C7.00814 14.1673 5.97478 13.2273 5.16244 12.2054C4.04135 10.7995 3.33611 9.24086 3.09457 7.73923C2.84848 6.2171 3.07862 4.75193 3.83627 3.56133C4.13477 3.09079 4.51645 2.66241 4.98129 2.29213C6.04997 1.44105 7.27019 0.991021 8.48699 1.00014C9.65821 1.00925 10.8146 1.44561 11.8138 2.35821C12.1647 2.67722 12.4598 3.04294 12.7013 3.43943C13.516 4.78155 13.6914 6.49281 13.3337 8.22686C12.9805 9.9404 12.1032 11.6813 10.8055 13.1054V13.1089ZM8.25456 3.70717C9.69923 3.70717 10.8693 4.87839 10.8693 6.32191C10.8693 7.76544 9.69809 8.93666 8.25456 8.93666C6.81104 8.93666 5.63982 7.76657 5.63982 6.32191C5.63982 4.87725 6.8099 3.70717 8.25456 3.70717Z" fill="#0165FC"/>
    </g>
    <defs>
        <clipPath id="clip0_2634_5890">
            <rect width="10.5103" height="14" fill="white" transform="translate(3 1)"/>
        </clipPath>
    </defs>
</svg>
