<svg width="32" height="32" viewBox="0 0 32 32" fill="none" xmlns="http://www.w3.org/2000/svg">
    <g id="assistant_24px">
        <path id="icon/image/assistant_24px" fill-rule="evenodd" clip-rule="evenodd" d="M6.66667 2.27832H25.3333C26.8 2.27832 28 3.47832 28 4.94499V23.6117C28 25.0783 26.8 26.2783 25.3333 26.2783H20L16.9333 29.3317C16.4133 29.8517 15.5733 29.8517 15.0533 29.3317L12 26.2783H6.66667C5.2 26.2783 4 25.0783 4 23.6117V4.94499C4 3.47832 5.2 2.27832 6.66667 2.27832ZM16 22.2783L18.5067 16.785L24 14.2783L18.5067 11.7717L16 6.27832L13.4933 11.7717L8 14.2783L13.4933 16.785L16 22.2783Z" fill="#0165FC"/>
    </g>
</svg>
