<svg width="24" height="24" viewBox="0 0 24 24" fill="none" xmlns="http://www.w3.org/2000/svg">
    <path d="M10.3037 19.5117C9.81738 19.5117 9.40723 19.3125 9.07324 18.9141L4.78418 13.6758C4.64355 13.5117 4.54395 13.3564 4.48535 13.21C4.42676 13.0576 4.39746 12.8965 4.39746 12.7266C4.39746 12.3633 4.52051 12.0615 4.7666 11.8213C5.0127 11.5811 5.32324 11.4609 5.69824 11.4609C6.12012 11.4609 6.47168 11.6338 6.75293 11.9795L10.2686 16.374L17.1592 5.47559C17.3174 5.22949 17.4844 5.05664 17.6602 4.95703C17.8359 4.85156 18.0527 4.79883 18.3105 4.79883C18.6855 4.79883 18.9932 4.91895 19.2334 5.15918C19.4736 5.39355 19.5938 5.69238 19.5938 6.05566C19.5938 6.19043 19.5703 6.33398 19.5234 6.48633C19.4766 6.63281 19.4033 6.78516 19.3037 6.94336L11.543 18.8701C11.2559 19.2979 10.8428 19.5117 10.3037 19.5117Z" fill="#1ED482"/>
</svg>
