<svg width="14" height="14" viewBox="0 0 14 14" fill="none" xmlns="http://www.w3.org/2000/svg">
    <path fill-rule="evenodd" clip-rule="evenodd" d="M6.99967 0.333336C3.31967 0.333336 0.333008 3.32 0.333008 7C0.333008 10.68 3.31967 13.6667 6.99967 13.6667C10.6797 13.6667 13.6663 10.68 13.6663 7C13.6663 3.32 10.6797 0.333336 6.99967 0.333336ZM6.99967 10.3333C6.63301 10.3333 6.33301 10.0333 6.33301 9.66667V7C6.33301 6.63334 6.63301 6.33334 6.99967 6.33334C7.36634 6.33334 7.66634 6.63334 7.66634 7V9.66667C7.66634 10.0333 7.36634 10.3333 6.99967 10.3333ZM6.33301 3.66667V5H7.66634V3.66667H6.33301Z" fill="#FFB443"/>
</svg>
