<svg width="12" height="12" viewBox="0 0 12 12" fill="none" xmlns="http://www.w3.org/2000/svg">
    <path fill-rule="evenodd" clip-rule="evenodd" d="M6 12C9.31371 12 12 9.31371 12 6C12 2.68629 9.31371 0 6 0C2.68629 0 0 2.68629 0 6C0 9.31371 2.68629 12 6 12Z" fill="#D7993B"/>
    <path fill-rule="evenodd" clip-rule="evenodd" d="M9.7123 4.72012C10.0052 4.42723 10.0052 3.95236 9.7123 3.65946C9.41941 3.36657 8.94454 3.36657 8.65164 3.65946L4.93933 7.37177L3.34834 5.78078C3.05545 5.48789 2.58058 5.48789 2.28768 5.78078C1.99479 6.07368 1.99479 6.54855 2.28768 6.84144L4.4084 8.96216C4.4086 8.96236 4.4088 8.96256 4.409 8.96276C4.7019 9.25566 5.17677 9.25566 5.46966 8.96276L9.7123 4.72012Z" fill="white"/>
</svg>
