<svg width="16" height="16" viewBox="0 0 16 16" fill="none" xmlns="http://www.w3.org/2000/svg">
    <path d="M13.3334 3.33301H7.25337L6.66671 1.33301H2.66671C1.93337 1.33301 1.33337 1.93301 1.33337 2.66634V11.333C1.33337 12.0663 1.93337 12.6663 2.66671 12.6663H7.33337L8.00004 14.6663H13.3334C14.0667 14.6663 14.6667 14.0663 14.6667 13.333V4.66634C14.6667 3.93301 14.0667 3.33301 13.3334 3.33301ZM4.78004 9.72634C3.28004 9.72634 2.05337 8.50634 2.05337 6.99967C2.05337 5.49301 3.27337 4.27301 4.78004 4.27301C5.47337 4.27301 6.10671 4.51967 6.60671 4.98634L6.65337 5.02634L5.83337 5.81301L5.79337 5.77967C5.60004 5.59967 5.27337 5.38634 4.78004 5.38634C3.90671 5.38634 3.19337 6.11301 3.19337 6.99967C3.19337 7.88634 3.90671 8.61301 4.78004 8.61301C5.69337 8.61301 6.08671 8.03301 6.19337 7.63967H4.72004V6.60634H7.35337L7.36004 6.65301C7.38671 6.79301 7.39337 6.91967 7.39337 7.05967C7.39337 8.62634 6.32004 9.72634 4.78004 9.72634ZM8.80004 8.58634C9.02004 8.98634 9.29337 9.37301 9.59337 9.71967L9.23337 10.073L8.80004 8.58634ZM9.31337 8.07967H8.65337L8.44671 7.38634H11.1067C11.1067 7.38634 10.88 8.25967 10.0667 9.21301C9.72004 8.79967 9.47337 8.39301 9.31337 8.07967ZM14 13.333C14 13.6997 13.7 13.9997 13.3334 13.9997H8.66671L10 12.6663L9.46004 10.8197L10.0734 10.2063L11.86 11.9997L12.3467 11.513L10.54 9.72634C11.14 9.03967 11.6067 8.22634 11.82 7.38634H12.6667V6.69301H10.24V5.99967H9.54671V6.69301H8.24004L7.45337 3.99967H13.3334C13.7 3.99967 14 4.29967 14 4.66634V13.333Z" fill="#1E1E1E"/>
</svg>
