<svg width="40" height="37" viewBox="0 0 40 37" fill="none" xmlns="http://www.w3.org/2000/svg">
    <path fill-rule="evenodd" clip-rule="evenodd" d="M4.19955 36.0166H35.8005C39.0319 36.0166 41.0463 32.5124 39.4306 29.7216L23.6301 2.42231C22.0144 -0.368472 17.9856 -0.368472 16.3699 2.42231L0.569427 29.7216C-1.04629 32.5124 0.968111 36.0166 4.19955 36.0166ZM20.0001 21.3283C18.846 21.3283 17.9017 20.3841 17.9017 19.23V15.0333C17.9017 13.8792 18.846 12.935 20.0001 12.935C21.1541 12.935 22.0984 13.8792 22.0984 15.0333V19.23C22.0984 20.3841 21.1541 21.3283 20.0001 21.3283ZM17.9017 29.7217H22.0984V25.525H17.9017V29.7217Z" fill="#FF4F4F"/>
</svg>
