<svg width="16" height="16" viewBox="0 0 16 16" fill="none" xmlns="http://www.w3.org/2000/svg">
<path fill-rule="evenodd" clip-rule="evenodd" d="M8 16C12.4183 16 16 12.4183 16 8C16 3.58172 12.4183 0 8 0C3.58172 0 0 3.58172 0 8C0 12.4183 3.58172 16 8 16Z" fill="#FFB443"/>
<path fill-rule="evenodd" clip-rule="evenodd" d="M12.9498 6.29301C13.3404 5.90248 13.3404 5.26932 12.9498 4.8788C12.5593 4.48827 11.9262 4.48827 11.5356 4.8788L6.58588 9.82854L4.46456 7.70722C4.07403 7.3167 3.44087 7.3167 3.05035 7.70722C2.65982 8.09775 2.65982 8.73091 3.05035 9.12144L5.87877 11.9499C6.2693 12.3404 6.90246 12.3404 7.29299 11.9499L12.9498 6.29301Z" fill="white"/>
</svg>
