<svg width="18" height="19" viewBox="0 0 18 19" fill="none" xmlns="http://www.w3.org/2000/svg">
<g id="launch_24px">
<path id="icon/action/launch_24px" fill-rule="evenodd" clip-rule="evenodd" d="M3.75 14C3.75 14.4125 4.0875 14.75 4.5 14.75H13.5C13.9125 14.75 14.25 14.4125 14.25 14V10.25C14.25 9.8375 14.5875 9.5 15 9.5C15.4125 9.5 15.75 9.8375 15.75 10.25V14.75C15.75 15.575 15.075 16.25 14.25 16.25H3.75C2.925 16.25 2.25 15.575 2.25 14.75V4.25C2.25 3.425 2.9175 2.75 3.75 2.75H8.25C8.6625 2.75 9 3.0875 9 3.5C9 3.9125 8.6625 4.25 8.25 4.25H4.5C4.0875 4.25 3.75 4.5875 3.75 5V14ZM11.25 4.25C10.8375 4.25 10.5 3.9125 10.5 3.5C10.5 3.0875 10.8375 2.75 11.25 2.75H15.75V7.25C15.75 7.6625 15.4125 8 15 8C14.5875 8 14.25 7.6625 14.25 7.25V5.3075L7.4025 12.155C7.11 12.4475 6.6375 12.4475 6.345 12.155C6.0525 11.8625 6.0525 11.39 6.345 11.0975L13.1925 4.25H11.25Z" fill="white"/>
</g>
</svg>
