<svg width="10" height="10" viewBox="0 0 10 10" fill="none" xmlns="http://www.w3.org/2000/svg">
<path id="Vector" d="M9.09091 0H0.909091C0.406818 0 0 0.406818 0 0.909091V9.09091C0 9.59318 0.406818 10 0.909091 10H9.09091C9.59318 10 10 9.59318 10 9.09091V0.909091C10 0.406818 9.59318 0 9.09091 0ZM3.16091 8.18182H1.82V3.86727H3.16091V8.18182ZM2.47682 3.25045C2.04455 3.25045 1.695 2.9 1.695 2.46864C1.695 2.03727 2.045 1.68727 2.47682 1.68727C2.90773 1.68727 3.25818 2.03773 3.25818 2.46864C3.25818 2.9 2.90773 3.25045 2.47682 3.25045ZM8.18364 8.18182H6.84364V6.08364C6.84364 5.58318 6.83455 4.93955 6.14682 4.93955C5.44909 4.93955 5.34182 5.48455 5.34182 6.04727V8.18182H4.00182V3.86727H5.28818V4.45682H5.30636C5.48545 4.11773 5.92273 3.76 6.575 3.76C7.93273 3.76 8.18364 4.65364 8.18364 5.81545V8.18182Z" fill="#0165FC"/>
</svg>
