<svg width="150" height="41" viewBox="0 0 150 41" fill="none" xmlns="http://www.w3.org/2000/svg">
<g clip-path="url(#clip0_669_753)">
<path d="M12.9078 34.0127C12.9078 35.8376 12.3528 37.3099 11.2462 38.4296C10.1395 39.5493 8.49746 40.1075 6.32331 40.1075C5.36682 40.1075 4.49847 40.0031 3.71499 39.7974C2.93151 39.5917 2.26555 39.2098 1.71059 38.6548C1.15563 38.0999 0.73451 37.3294 0.440706 36.3403C0.146902 35.3512 0 34.0747 0 32.5111V32.054H3.91086V33.1607C3.91086 34.4632 4.0904 35.3773 4.45276 35.8996C4.81512 36.4219 5.43211 36.6831 6.30699 36.6831C7.27002 36.6831 7.90986 36.4448 8.22651 35.9649C8.54317 35.4883 8.70313 34.7048 8.70313 33.6177V19.5706H12.9078V34.0095V34.0127ZM21.6436 24.3662C22.8188 24.3662 23.8699 24.5522 24.8068 24.9211C25.7405 25.29 26.5338 25.8188 27.1867 26.5011C27.8396 27.1867 28.339 28.0126 28.6851 28.9789C29.0311 29.9452 29.2074 31.0159 29.2074 32.1879C29.2074 33.3598 29.0278 34.4306 28.6687 35.4001C28.3096 36.3664 27.8036 37.1923 27.154 37.8779C26.5011 38.5634 25.7078 39.089 24.7742 39.4579C23.8406 39.8268 22.7959 40.0128 21.6436 40.0128C20.4912 40.0128 19.378 39.8235 18.4313 39.4416C17.4879 39.0629 16.6881 38.5275 16.0352 37.8452C15.3823 37.1597 14.8828 36.337 14.5368 35.3675C14.1907 34.4012 14.0144 33.3402 14.0144 32.1879C14.0144 31.0355 14.194 29.9517 14.5531 28.9952C14.9122 28.0387 15.4182 27.2193 16.0678 26.5338C16.7207 25.8482 17.5172 25.3161 18.4639 24.9374C19.4107 24.5555 20.4683 24.3662 21.6403 24.3662H21.6436ZM21.6436 27.6894C19.254 27.6894 18.0592 29.1878 18.0592 32.1879C18.0592 35.1879 19.254 36.719 21.6436 36.719C24.0332 36.719 25.2312 35.2075 25.2312 32.1879C25.2312 29.1682 24.0364 27.6894 21.6436 27.6894ZM34.3555 26.7133H34.3881C35.4491 25.1496 36.8887 24.3662 38.7103 24.3662H38.743C39.6733 24.3662 40.5188 24.5555 41.2762 24.9374C42.0336 25.3194 42.6734 25.845 43.1924 26.5175C43.7115 27.1932 44.113 27.9995 44.3938 28.9462C44.6745 29.8929 44.8149 30.931 44.8149 32.0606C44.8149 33.2978 44.6517 34.4175 44.3285 35.4164C44.002 36.4154 43.5581 37.2576 42.9966 37.9432C42.4318 38.6287 41.7626 39.1543 40.9824 39.5232C40.2022 39.8921 39.3469 40.0781 38.4165 40.0781C36.5753 40.0781 35.201 39.3175 34.2902 37.7963L34.2575 39.6211H30.4446V19.3486H34.3555V26.7166V26.7133ZM37.4665 27.7253C35.2826 27.7253 34.1923 29.3314 34.1923 32.5502C34.1923 33.8103 34.4991 34.8386 35.1161 35.6286C35.7331 36.4219 36.5264 36.8169 37.4992 36.8169C38.472 36.8169 39.2718 36.3991 39.8986 35.5633C40.5254 34.7276 40.8388 33.6471 40.8388 32.3184C40.8388 29.2531 39.7125 27.722 37.4633 27.722L37.4665 27.7253ZM62.2538 39.6211H58.0491V30.6242H50.2274V39.6211H46.0228V19.5771H50.2274V27.1377H58.0491V19.5771H62.2538V39.6211ZM77.0844 39.6211H73.3367V37.5351C72.3606 39.1869 70.8263 40.0128 68.7403 40.0128C68.0026 40.0128 67.3235 39.8823 66.7033 39.6211C66.083 39.36 65.5509 38.9845 65.107 38.4981C64.6597 38.0085 64.3137 37.4339 64.0623 36.7712C63.8142 36.1085 63.6869 35.3642 63.6869 34.5383V24.7612H67.5978V33.954C67.5978 35.8017 68.4335 36.7255 70.1082 36.7255C71.1071 36.7255 71.8677 36.4089 72.39 35.7788C72.9124 35.1488 73.1735 34.3326 73.1735 33.3337V24.7612H77.0844V39.6244V39.6211ZM82.3663 26.9418C82.8201 26.1159 83.4338 25.4793 84.201 25.0354C84.9681 24.5914 85.9507 24.3662 87.1423 24.3662C87.8572 24.3662 88.5101 24.4739 89.1075 24.6926C89.7049 24.9113 90.2174 25.2247 90.6516 25.6393C91.0858 26.0539 91.4253 26.5664 91.6734 27.1867C91.9215 27.8069 92.0488 28.5186 92.0488 29.3216V39.6211H88.1379V30.6242C88.1379 29.4718 87.9486 28.6949 87.5666 28.2933C87.1847 27.8918 86.5285 27.6894 85.5949 27.6894C83.5513 27.6894 82.5328 28.832 82.5328 31.1106V39.6178H78.6219V24.7546H82.3696V26.9386L82.3663 26.9418ZM105.704 27.5621H97.556V33.6895C97.556 34.6232 97.729 35.3446 98.0718 35.8572C98.4178 36.3697 98.9891 36.6243 99.7856 36.6243C100.582 36.6243 101.134 36.3762 101.499 35.8735C101.865 35.374 102.051 34.6558 102.051 33.7222V29.844H105.701V34.1139C105.701 34.8974 105.587 35.645 105.358 36.3631C105.13 37.0813 104.771 37.7114 104.284 38.2533C103.794 38.7952 103.171 39.2294 102.41 39.5558C101.65 39.8823 100.749 40.0455 99.704 40.0455C98.6594 40.0455 97.6931 39.8823 96.9357 39.5558C96.1751 39.2294 95.5516 38.7952 95.0619 38.2533C94.5722 37.7114 94.2131 37.0781 93.9846 36.3631C93.7561 35.645 93.6419 34.8876 93.6419 34.0813V20.7491H97.5527V24.7579H105.701V27.5621H105.704Z" fill="url(#paint0_linear_669_753)"/>
<path d="M106.223 11.8926C106.223 15.6337 103.19 18.6696 99.4461 18.6696H79.5686C75.8275 18.6696 72.7916 15.6369 72.7916 11.8926C72.7916 8.15145 75.8243 5.11548 79.5686 5.11548H99.4461C103.187 5.11548 106.223 8.14819 106.223 11.8926ZM87.3349 10.0514H85.8234L84.9681 13.626L84.103 10.0514H82.6144L81.8473 13.626L80.943 10.0514H79.3924L80.9658 15.6141H82.4806L83.3587 12.3822L84.2369 15.6141H85.7385L87.3381 10.0514H87.3349ZM88.6341 10.1199C88.2816 10.2636 87.9812 10.4627 87.7364 10.7173C87.4916 10.972 87.3022 11.2821 87.1684 11.6379C87.0345 11.997 86.966 12.3953 86.966 12.8327C86.966 13.2702 87.0313 13.6619 87.1618 14.0243C87.2924 14.3866 87.4785 14.6968 87.7233 14.9514C87.9682 15.206 88.2652 15.4084 88.6211 15.5488C88.9736 15.6924 89.3752 15.761 89.8224 15.761C90.2696 15.761 90.6451 15.6924 90.9944 15.5553C91.3437 15.4182 91.6407 15.2191 91.8856 14.9644C92.1304 14.7065 92.3197 14.3997 92.4536 14.0373C92.5874 13.675 92.656 13.2734 92.656 12.836C92.656 12.3986 92.5907 11.997 92.4601 11.6347C92.3295 11.2723 92.1435 10.9622 91.8986 10.7075C91.6538 10.4529 91.3567 10.2538 91.0074 10.1167C90.6581 9.97957 90.2631 9.91101 89.8224 9.91101C89.3817 9.91101 88.9867 9.98283 88.6341 10.1232V10.1199ZM91.1674 12.836C91.1674 13.9655 90.7201 14.5335 89.8257 14.5335C88.9312 14.5335 88.484 13.9688 88.484 12.836C88.484 11.7032 88.9312 11.1515 89.8257 11.1515C90.7201 11.1515 91.1674 11.713 91.1674 12.836ZM96.3416 9.92081H96.1457C95.9988 9.92081 95.8519 9.92734 95.705 9.94039C95.5581 9.95345 95.4177 9.9861 95.2774 10.0449C95.1403 10.1036 95.0064 10.182 94.8758 10.2897C94.7453 10.3942 94.6212 10.5411 94.4972 10.7304V10.0579H93.1195V15.6206H94.5853V12.7283C94.5853 11.8338 95.0358 11.3866 95.9401 11.3866C96.0706 11.3866 96.2045 11.3996 96.3416 11.4225V9.92081ZM101.783 10.0546H99.9782L98.1468 12.1766V8.0274H96.6811V15.6173H98.1468V13.861L98.8683 13.1167L100.089 15.6173H101.738L99.9195 12.1047L101.787 10.0546H101.783ZM78.7297 13.7533H77.1562V15.2778H78.7297V13.7533Z" fill="url(#paint1_linear_669_753)"/>
<path d="M137.432 0H129.597C128.155 0 126.985 1.16925 126.985 2.61159C126.985 4.05393 128.155 5.22318 129.597 5.22318H137.432C138.874 5.22318 140.043 4.05393 140.043 2.61159C140.043 1.16925 138.874 0 137.432 0Z" fill="url(#paint2_linear_669_753)"/>
<path d="M141.741 6.7738H124.335C119.777 6.7738 116.079 10.4692 116.079 15.0297V25.0484C116.079 29.524 114.264 33.807 111.048 36.9181L109.507 38.4067C108.867 39.0237 109.308 40.1075 110.196 40.1075H133.485C142.606 40.1075 150 32.7167 150 23.5957V15.0297C150 10.4692 146.301 6.7738 141.741 6.7738ZM118.357 34.6982C117.786 34.7766 117.502 34.0421 117.956 33.683C119.588 32.4 121.592 29.8244 121.811 24.8689V16.4138C121.811 14.2005 123.603 12.4083 125.813 12.4083H127.808V24.3694C127.808 24.3694 128.128 33.3663 118.357 34.6982ZM134.788 34.6982C134.226 34.7733 133.919 34.0453 134.366 33.696C136.005 32.4131 138.019 29.8407 138.241 24.8689V24.2649H136.028V24.3694C136.028 24.3694 136.351 33.3631 126.581 34.6982C126.019 34.7733 125.712 34.0453 126.156 33.696C127.798 32.4131 129.812 29.8407 130.034 24.8689V12.3136H136.028V18.2648H138.241V12.4083H140.233C142.446 12.4083 144.238 14.2005 144.238 16.4106V24.3694C144.238 24.3694 144.558 33.3631 134.788 34.6982Z" fill="url(#paint3_linear_669_753)"/>
</g>
<defs>
<linearGradient id="paint0_linear_669_753" x1="0" y1="29.7264" x2="105.701" y2="29.7264" gradientUnits="userSpaceOnUse">
<stop stop-color="#B4B4B4"/>
<stop offset="1" stop-color="white"/>
</linearGradient>
<linearGradient id="paint1_linear_669_753" x1="72.7948" y1="11.8926" x2="106.223" y2="11.8926" gradientUnits="userSpaceOnUse">
<stop stop-color="#B4B4B4"/>
<stop offset="1" stop-color="white"/>
</linearGradient>
<linearGradient id="paint2_linear_669_753" x1="129.711" y1="6.41798" x2="137.321" y2="-1.1948" gradientUnits="userSpaceOnUse">
<stop stop-color="#B4B4B4"/>
<stop offset="1" stop-color="white"/>
</linearGradient>
<linearGradient id="paint3_linear_669_753" x1="111.868" y1="42.1935" x2="146.226" y2="7.83802" gradientUnits="userSpaceOnUse">
<stop stop-color="#B4B4B4"/>
<stop offset="1" stop-color="white"/>
</linearGradient>
<clipPath id="clip0_669_753">
<rect width="150" height="40.1075" fill="white"/>
</clipPath>
</defs>
</svg>
