<svg width="60" height="60" viewBox="0 0 60 60" fill="none" xmlns="http://www.w3.org/2000/svg">
<g id="search_24px">
<path id="icon/action/search_24px" fill-rule="evenodd" clip-rule="evenodd" d="M37.9664 36.1789H39.9414L50.5414 46.8289C51.5664 47.8539 51.5664 49.5289 50.5414 50.5539C49.5164 51.5789 47.8414 51.5789 46.8164 50.5539L36.1914 39.9289V37.9539L35.5164 37.2539C32.0164 40.2539 27.2414 41.8039 22.1664 40.9539C15.2164 39.7789 9.66641 33.9789 8.81641 26.9789C7.51641 16.4039 16.4164 7.50393 26.9914 8.80393C33.9914 9.65393 39.7914 15.2039 40.9664 22.1539C41.8164 27.2289 40.2664 32.0039 37.2664 35.5039L37.9664 36.1789ZM13.6914 24.9289C13.6914 31.1539 18.7164 36.1789 24.9414 36.1789C31.1664 36.1789 36.1914 31.1539 36.1914 24.9289C36.1914 18.7039 31.1664 13.6789 24.9414 13.6789C18.7164 13.6789 13.6914 18.7039 13.6914 24.9289Z" fill="white"/>
<path id="icon/action/search_24px_2" fill-rule="evenodd" clip-rule="evenodd" d="M37.9664 36.1789H39.9414L50.5414 46.8289C51.5664 47.8539 51.5664 49.5289 50.5414 50.5539C49.5164 51.5789 47.8414 51.5789 46.8164 50.5539L36.1914 39.9289V37.9539L35.5164 37.2539C32.0164 40.2539 27.2414 41.8039 22.1664 40.9539C15.2164 39.7789 9.66638 33.9789 8.81638 26.9789C7.51638 16.4039 16.4164 7.50393 26.9914 8.80393C33.9914 9.65393 39.7914 15.2039 40.9664 22.1539C41.8164 27.2289 40.2664 32.0039 37.2664 35.5039L37.9664 36.1789ZM13.6914 24.9289C13.6914 31.1539 18.7164 36.1789 24.9414 36.1789C31.1664 36.1789 36.1914 31.1539 36.1914 24.9289C36.1914 18.7039 31.1664 13.6789 24.9414 13.6789C18.7164 13.6789 13.6914 18.7039 13.6914 24.9289Z" fill="white"/>
</g>
</svg>
